<?xml version="1.0" encoding="utf-8"?>
<!-- Generator: Adobe Illustrator 27.0.0, SVG Export Plug-In . SVG Version: 6.00 Build 0)  -->
<svg version="1.1" id="Layer_1" xmlns="http://www.w3.org/2000/svg" xmlns:xlink="http://www.w3.org/1999/xlink" x="0px" y="0px"
	 viewBox="0 0 101.2 35" style="enable-background:new 0 0 101.2 35;" xml:space="preserve">
<style type="text/css">
	.st0{fill:#D71921;}
	.st1{fill:#6C6E75;}
</style>
<g id="XMLID_28_">
	<path id="XMLID_78_" class="st0" d="M6.2,11.2h3.7L8.2,16h4.4l1.8-4.8h3.7l-4.2,11.7c0,0-0.3,0.8-1.2,0.8c-0.8,0-2.9,0-2.9,0
		l2.2-5.9H7.5l-2.2,5.9H1.5L6.2,11.2z"/>
	<polygon id="XMLID_18_" class="st0" points="20.6,11.2 24.3,11.2 19.8,23.7 16,23.7 	"/>
	<path id="XMLID_19_" class="st0" d="M26.9,11.2h3.7l-1.7,4.6l6.1-4.6h2.8L31.5,16l4,7.7h-3c0,0-1,0.1-1.4-0.7l-2.4-4.8l-1,0.7
		L26,23.7h-3.8L26.9,11.2z"/>
	<path id="XMLID_20_" class="st1" d="M39,11.2h3.5l0.6,8.5l5.8-8.5H51l-7.9,11.9c0,0-0.3,0.6-1.2,0.6s-1.9,0-1.9,0L39,11.2z"/>
	<polygon id="XMLID_21_" class="st1" points="52.5,11.2 56,11.2 51.4,23.7 47.9,23.7 	"/>
	<path id="XMLID_88_" class="st1" d="M67.3,11.2h-7.6c0,0-2.8-0.1-3.3,2.8c0,0-0.2,2.1,1.6,3.2c1.8,1.1,2.2,1.3,2.2,1.3
		s1.9,0.9,1.6,2.2C61.5,22,60.4,22,60.4,22h-6l-0.7,1.7h7.4c0,0,3.1,0.3,3.9-2.9c0,0,0.6-2.4-1.6-3.8c0,0-1.1-0.7-2.6-1.4
		c0,0-1.7-0.6-1.5-1.7c0,0,0.2-1,1.3-1h6.1L67.3,11.2z"/>
	<polygon id="XMLID_22_" class="st1" points="69.9,11.2 73.4,11.2 68.8,23.7 65.2,23.7 	"/>
	<path id="XMLID_17_" class="st1" d="M77.9,14.5c0,0,0.7-2.1,3-2.1c0,0,1.7,0,1.4,1.7L80,20.5c0,0-0.6,1.8-2.5,2
		c0,0-1.3,0.3-1.8-0.7c0,0-0.3-0.5,0.2-1.6L77.9,14.5z M72.3,20.1c-0.3,2.3,1.5,3.3,1.5,3.3c1.2,0.8,5.2,0.3,5.2,0.3
		c3.3-0.7,4.5-3.3,4.5-3.3c1.2-2,2-5.3,2-5.3c0.7-2.1-1.3-3.5-1.3-3.5c-1.9-1.2-5.9-0.2-5.9-0.2c-3,0.9-4.2,3.7-4.2,3.7
		C72.8,17.9,72.3,20.1,72.3,20.1z"/>
	<path id="XMLID_27_" class="st1" d="M89,11.2l-4.6,12.5h1.8l3.2-8.5l2.7,7.4c0,0,0.3,1.1,1.2,1.1h1.6l4.7-12.5h-1.9l-3.1,8.4
		l-3-7.6c0,0-0.3-0.9-1.2-0.9L89,11.2L89,11.2z"/>
</g>
</svg>
